<svg xmlns="http://www.w3.org/2000/svg" version="1.1" xmlns:xlink="http://www.w3.org/1999/xlink" xmlns:svgjs="http://svgjs.dev/svgjs" width="100%" height="100%" viewBox="0 0 1000 600"><rect width="1000" height="600" x="0" y="0" fill="#0067c0"/><g><rect width="333.3333333333333" height="333.3333333333333" rx="13.333333333333334" ry="13.333333333333334" y="184.68891961935657" fill="#fcedda" transform="matrix(0.7693884576453782,0,0,0.7693884576453782,0,29.671067480923725)" x="162.46669006347653"/><path d="M271.44799418463725 276.3555776446473L386.8187321397119 276.3555776446473L386.8187321397119 294.54194983402203L339.6243448053015 294.54194983402203L339.6243448053015 426.35557305783715L318.64238151904766 426.35557305783715L318.64238151904766 294.54194983402203L271.44799418463725 294.54194983402203L271.44799418463725 276.3555776446473Z " fill="#ee4e34" transform="matrix(0.7693884576453782,0,0,0.7693884576453782,0,29.671067480923725)"/><path d="M579.1333617657998 279.6646285453243L689.5688012586917 279.6646285453243L689.5688012586917 297.07302898649147L644.3932827584728 297.07302898649147L644.3932827584728 423.2479644154469L624.3088802660187 423.2479644154469L624.3088802660187 297.07302898649147L579.1333617657998 297.07302898649147L579.1333617657998 279.6646285453243ZM815.3121234535687 423.2479644154469L793.3573969467743 423.2479644154469Q789.8469426429357 413.9251185593508 786.7393273575702 404.91878907491224Q783.6317120722049 395.9124595904737 780.2939030619976 386.58961373437756L780.2939030619976 386.58961373437756L715.2641757941666 386.58961373437756L702.2006819093899 423.2479644154469L681.281827164384 423.2479644154469Q689.5688012586917 400.4587856561008 696.819903591211 381.09373855377765Q704.0710059237301 361.7286914514545 711.0055918845918 344.32029101028735Q717.9401778454534 326.9118905691202 724.7884411594994 311.0572977706357Q731.6079302579401 295.2027049721512 739.0892263153012 279.6646285453243L739.0892263153012 279.6646285453243L757.5047243026515 279.6646285453243Q764.9860203600126 295.2027049721512 771.8055094584533 311.0572977706357Q778.6537727724992 326.9118905691202 785.5883587333609 344.32029101028735Q792.5229446942226 361.7286914514545 799.7740470267418 381.09373855377765Q807.0251493592609 400.4587856561008 815.3121234535687 423.2479644154469L815.3121234535687 423.2479644154469ZM721.0477931308188 370.01566554576215L774.5102857253454 370.01566554576215Q767.8634419205362 351.9742323612798 761.360469193753 335.0837678010069Q754.8287222513646 318.22207745633915 747.7790394280821 302.6840010295123L747.7790394280821 302.6840010295123Q740.527937095563 318.22207745633915 733.9961901531746 335.0837678010069Q727.4644432107863 351.9742323612798 721.0477931308188 370.01566554576215L721.0477931308188 370.01566554576215ZM834.7922674183127 423.2479644154469L834.7922674183127 279.6646285453243L854.8766699107667 279.6646285453243L854.8766699107667 423.2479644154469L834.7922674183127 423.2479644154469ZM944.7960936771261 423.2479644154469L924.7116911846721 423.2479644154469L924.7116911846721 365.6419847737665Q910.4109060288703 343.4858387577355 897.7790253781722 321.93395126941454Q885.147144727474 300.3820637810935 873.9539748570377 279.6646285453243L873.9539748570377 279.6646285453243L897.5776058689355 279.6646285453243Q905.4329667291646 296.6701899680182 915.1874258193394 314.1649130560011Q924.9131106939087 331.6884103595892 935.2718283117935 347.830745314126L935.2718283117935 347.830745314126Q945.4291264204413 331.6884103595892 955.1548112950107 314.1649130560011Q964.9092703851854 296.6701899680182 972.9660507546513 279.6646285453243L972.9660507546513 279.6646285453243L995.352390495524 279.6646285453243Q984.1592206250876 300.3820637810935 971.5273399743895 321.84762862259885Q958.8954593236913 343.28441924849886 944.7960936771261 365.23914575529324L944.7960936771261 365.23914575529324L944.7960936771261 423.2479644154469ZM1000.1289102859931 351.3699738335699L1000.1289102859931 351.3699738335699Q1000.1289102859931 332.92570163061424 1005.5960112509878 318.8263359840492Q1011.0918864315876 304.75574455308924 1020.5298291501048 295.31780183457215Q1029.9389976530165 285.87985911605506 1042.484555656899 281.1321135411913Q1055.0301136607814 276.3555937507223 1069.1007050917415 276.3555937507223L1069.1007050917415 276.3555937507223Q1082.9986512290698 276.3555937507223 1095.3140155081105 281.1321135411913Q1107.6293797871513 285.87985911605506 1116.9522256432474 295.31780183457215Q1126.2750714993435 304.75574455308924 1131.7709466799433 318.8263359840492Q1137.2668218605431 332.92570163061424 1137.2668218605431 351.3699738335699L1137.2668218605431 351.3699738335699Q1137.2668218605431 369.78547182092035 1131.7709466799433 383.8848374674855Q1126.2750714993435 397.9842031140507 1116.9522256432474 407.3933716169625Q1107.6293797871513 416.8313143354796 1095.3140155081105 421.57905991034335Q1082.9986512290698 426.35557970081237 1069.1007050917415 426.35557970081237L1069.1007050917415 426.35557970081237Q1055.0301136607814 426.35557970081237 1042.484555656899 421.57905991034335Q1029.9389976530165 416.8313143354796 1020.5298291501048 407.3933716169625Q1011.0918864315876 397.9842031140507 1005.5960112509878 383.8848374674855Q1000.1289102859931 369.78547182092035 1000.1289102859931 351.3699738335699ZM1021.2491845402357 351.3699738335699L1021.2491845402357 351.3699738335699Q1021.2491845402357 364.4046935027414 1024.5582193348378 375.0799274922836Q1027.8672541294395 385.7551614818257 1033.9961620533545 393.20768332358165Q1040.0962957616644 400.66020516533746 1048.9012057368664 404.7173695656756Q1057.7061157120684 408.74575975040847 1068.697866073268 408.74575975040847L1068.697866073268 408.74575975040847Q1079.6608422188624 408.74575975040847 1088.379429547249 404.7173695656756Q1097.0692426600299 400.66020516533746 1103.1981505839449 393.20768332358165Q1109.2982842922547 385.7551614818257 1112.607319086857 375.0799274922836Q1115.9163538814587 364.4046935027414 1115.9163538814587 351.3699738335699L1115.9163538814587 351.3699738335699Q1115.9163538814587 338.3064799487932 1112.607319086857 327.6312459592511Q1109.2982842922547 316.95601196970887 1103.1981505839449 309.503490127953Q1097.0692426600299 302.05096828619713 1088.379429547249 298.0225781014642Q1079.6608422188624 293.96541370112607 1068.697866073268 293.96541370112607L1068.697866073268 293.96541370112607Q1057.7061157120684 293.96541370112607 1048.9012057368664 298.0225781014642Q1040.0962957616644 302.05096828619713 1033.9961620533545 309.503490127953Q1027.8672541294395 316.95601196970887 1024.5582193348378 327.6312459592511Q1021.2491845402357 338.3064799487932 1021.2491845402357 351.3699738335699Z " fill="#fcedda" transform="matrix(0.7693884576453782,0,0,0.7693884576453782,0,29.671067480923725)"/></g></svg>